<?xml version="1.0" standalone="no"?>
<!DOCTYPE svg PUBLIC "-//W3C//DTD SVG 20010904//EN"
 "http://www.w3.org/TR/2001/REC-SVG-20010904/DTD/svg10.dtd">
<svg version="1.0" xmlns="http://www.w3.org/2000/svg"
 width="500.000000pt" height="500.000000pt" viewBox="0 0 500.000000 500.000000"
 preserveAspectRatio="xMidYMid meet">
<metadata>
Created by potrace 1.14, written by Peter Selinger 2001-2017
</metadata>
<g transform="translate(0.000000,500.000000) scale(0.100000,-0.100000)"
fill="#000000" stroke="none">
<path d="M1035 4943 c-190 -22 -350 -91 -592 -255 -191 -129 -204 -146 -311
-403 -76 -183 -82 -206 -107 -375 -12 -85 -20 -270 -20 -450 1 -230 17 -345
75 -523 73 -220 164 -357 353 -529 123 -112 171 -161 259 -261 41 -45 93 -90
130 -113 35 -21 94 -57 131 -82 38 -24 94 -52 125 -63 58 -20 342 -71 487 -88
84 -10 297 -7 376 4 44 7 46 6 78 -34 l33 -41 0 -503 c-1 -276 -1 -507 -1
-512 -1 -6 -22 -10 -50 -9 -27 0 -55 -2 -61 -6 -8 -5 -12 -68 -14 -209 l-2
-202 131 -134 c72 -74 136 -135 141 -135 107 -1 862 -1 870 -1 7 1 11 55 12
169 1 227 1 217 11 207 4 -6 16 -31 26 -56 13 -35 50 -81 153 -186 l137 -140
146 -2 c159 -3 161 -2 173 58 7 38 67 171 76 171 4 0 56 -51 116 -113 l109
-114 488 0 487 0 0 212 0 212 -39 26 c-22 15 -52 43 -67 63 l-28 36 0 451 c-1
249 1 480 2 515 l4 62 64 0 64 0 0 208 0 207 -137 140 -138 139 -455 -3 c-250
-2 -505 -3 -566 -3 l-111 0 -46 -136 c-25 -76 -58 -180 -72 -232 -15 -52 -30
-98 -34 -103 -4 -4 -13 16 -20 45 -7 29 -24 94 -38 143 l-24 90 -131 85 c-72
47 -142 91 -155 98 -23 13 -87 19 -230 21 l-63 1 38 63 c66 107 126 265 147
382 4 22 9 49 11 60 22 128 35 578 19 720 -9 87 -34 209 -54 268 -10 29 -51
119 -91 200 -71 144 -77 152 -189 269 -212 220 -355 363 -406 404 -167 136
-413 255 -585 283 -59 10 -562 13 -635 4z"/>
</g>
</svg>
